<svg version="1.1" id="레이어_1" xmlns="http://www.w3.org/2000/svg" xmlns:xlink="http://www.w3.org/1999/xlink" x="0px"
	 y="0px" viewBox="0 0 1920 1080" style="enable-background:new 0 0 1920 1080;" xml:space="preserve">
<!-- <style type="text/css">
	.st0{fill:#FFFFFF;stroke:#000000;stroke-width:2;stroke-miterlimit:10;}
</style> -->
<g>
	<path class="st0" d="M816,175.48c-122.89-44.52-265.74-32.32-394.19-29.64c-41.39,0.86-84.85,4.1-123.26,20.82
		c-41.6,18.11-67.85,55.48-89.29,93.94c-50.82,91.15-73.97,197.67-64.65,301.68c6.55,73.15,27.98,150.06-0.85,217.61
		c-9.79,22.93-25.34,44.7-25.49,69.63c-0.13,22.91,13.02,43.8,28.06,61.08c49.86,57.27,126.81,89.86,202.64,85.82
		c81.35-4.34,151.64-47.15,220.97-85.6c65.57-36.36,138.53-76.73,214.94-82.17c84.81-6.04,167.61,30.59,246.53,56
		c189.37,60.99,392.49,74.37,588.12,37.26c50.34-9.55,111.83-23.77,147.35-64.04c35.3-40.01,44.16-98.76,55.81-148.81
		c16.71-71.78,22.85-148.61-2.48-219.19c-42.47-118.35-163.41-191.99-285.08-223.71c-185.09-48.25-381.38-20.86-570.76-47.69
		c-37.09-5.25-74.19-12.68-108.7-27.27C842.23,185.51,829.11,180.22,816,175.48z"/>
</g>
<g>
</g>
<g>
</g>
<g>
</g>
<g>
</g>
<g>
</g>
<g>
</g>
<g>
</g>
<g>
</g>
<g>
</g>
<g>
</g>
<g>
</g>
<g>
</g>
<g>
</g>
<g>
</g>
<g>
</g>
</svg>
